<svg width="100" height="126" viewBox="0 0 100 126" fill="none" xmlns="http://www.w3.org/2000/svg">
<path d="M39.5199 1.21899C26.9454 3.95629 15.8251 11.4839 8.46854 22.1765C1.8819 31.8426 0 38.2582 0 50.3194C0.0855408 59.4723 0.256623 60.6699 2.99393 67.7698C7.18543 78.4624 7.61313 78.6335 15.3118 70.9348C19.5033 66.7433 22.1551 64.7758 23.1816 65.0325C26.261 65.6312 25.149 67.9408 18.3913 75.1263C14.6275 79.1467 11.548 83.1671 11.548 84.1081C11.548 86.161 18.9045 97.3669 20.2732 97.3669C20.7864 97.3669 24.8924 93.6886 29.426 89.2405C37.7235 81.1997 39.9476 79.831 40.9741 82.4828C41.4018 83.5093 39.0066 86.4177 32.9332 92.5766C27.7152 97.8801 24.3791 101.986 24.3791 103.098C24.3791 105.151 36.697 118.581 42.0861 122.259C50.2125 127.905 54.4895 126.451 66.7219 114.133C79.553 101.131 91.4432 82.825 97.6021 66.5722C99.6551 60.9265 99.9972 58.9591 99.9972 50.3194C100.083 38.2582 98.2009 31.8426 91.6142 22.1765C84.0866 11.2273 73.1374 3.87075 60.1352 1.21899C52.1799 -0.406289 47.2185 -0.406289 39.5199 1.21899ZM64.4123 25.8547C65.6954 26.5391 69.7158 30.1318 73.394 33.81C78.612 39.1136 80.1518 41.2521 80.5795 43.7328C81.0927 46.8978 81.0072 47.0689 67.064 61.2687C49.5281 79.1467 48.8438 79.7455 45.1656 79.7455C42.5138 79.7455 41.2307 78.719 34.1308 71.5336C22.4117 59.7289 22.2406 60.7554 40.4608 42.3641C54.1474 28.421 58.5955 24.6572 60.9906 24.6572C61.5894 24.6572 63.1291 25.1704 64.4123 25.8547Z" fill="#498DF1"/>
<path d="M54.9172 36.3762C53.2064 38.0015 54.7461 40.9954 59.7075 45.8713C63.6424 49.7206 65.6954 51.1748 67.4062 51.1748C68.6893 51.1748 69.7158 50.8326 69.7158 50.4905C69.7158 49.8917 59.2798 39.028 56.5425 36.7184C55.9437 36.2052 55.1738 36.0341 54.9172 36.3762Z" fill="#498DF1"/>
<path d="M42.7704 44.3316C35.6705 51.4315 35.1573 52.5435 38.9211 52.0303C41.2307 51.7736 51.7522 40.6533 51.7522 38.6004C51.7522 37.4883 51.4956 36.6329 51.0679 36.6329C50.7257 36.6329 46.9619 40.0546 42.7704 44.3316Z" fill="#498DF1"/>
<path d="M59.4509 59.9001C55.6871 63.835 53.463 66.8289 53.463 68.0265C53.463 69.1385 53.7197 69.9939 54.1474 69.9939C55.2594 69.9939 68.8604 55.9652 68.8604 54.7676C68.8604 52.0303 64.9255 54.1688 59.4509 59.9001Z" fill="#498DF1"/>
<path d="M35.4994 55.3662C34.5585 56.0506 35.8416 57.7614 41.6584 63.6637C49.0149 71.1058 50.8968 71.9612 50.8968 67.7697C50.8968 66.2299 49.2715 63.9203 45.3366 60.071C39.9476 54.6819 38.0657 53.8265 35.4994 55.3662Z" fill="#498DF1"/>
</svg>
