<?xml version="1.0" standalone="no"?>
<!DOCTYPE svg PUBLIC "-//W3C//DTD SVG 20010904//EN"
 "http://www.w3.org/TR/2001/REC-SVG-20010904/DTD/svg10.dtd">
<svg version="1.0" xmlns="http://www.w3.org/2000/svg"
 width="24.000000pt" height="24.000000pt" viewBox="0 0 24.000000 24.000000"
 preserveAspectRatio="xMidYMid meet">

<g transform="translate(0.000000,24.000000) scale(0.100000,-0.100000)"
fill="#000000" stroke="none">
<path d="M33 216 c-25 -22 -28 -31 -28 -89 l0 -64 35 0 c27 1 43 -6 66 -31 28
-27 38 -31 80 -29 l49 2 2 49 c2 42 -2 52 -27 78 -17 16 -30 36 -30 43 0 22
-59 65 -90 65 -16 0 -41 -11 -57 -24z m115 -22 c34 -38 26 -91 -19 -114 -22
-12 -112 -3 -104 10 3 5 1 20 -5 35 -13 34 5 74 40 92 31 16 59 8 88 -23z m75
-137 c-7 -38 -2 -33 -40 -40 -23 -5 -38 -1 -58 15 l-27 21 32 13 c20 9 36 25
43 45 l12 30 22 -26 c17 -19 21 -33 16 -58z"/>
<path d="M69 184 c-12 -15 -11 -16 9 -10 25 8 31 -11 10 -32 -9 -9 -9 -12 0
-12 20 0 35 39 21 56 -15 18 -23 18 -40 -2z"/>
</g>
</svg>
