<svg width="24" height="24" viewBox="0 0 24 24" fill="none" xmlns="http://www.w3.org/2000/svg">
<path d="M10.2001 13.5001C10.4388 13.5001 10.6677 13.4053 10.8365 13.2365C11.0053 13.0677 11.1001 12.8388 11.1001 12.6001C11.1001 12.3614 11.0053 12.1325 10.8365 11.9637C10.6677 11.7949 10.4388 11.7001 10.2001 11.7001C9.9614 11.7001 9.73248 11.7949 9.5637 11.9637C9.39492 12.1325 9.3001 12.3614 9.3001 12.6001C9.3001 12.8388 9.39492 13.0677 9.5637 13.2365C9.73248 13.4053 9.9614 13.5001 10.2001 13.5001ZM13.2001 4.20011C13.2001 4.11363 13.1813 4.02817 13.1452 3.9496C13.1091 3.87103 13.0564 3.8012 12.9907 3.7449C12.9251 3.6886 12.848 3.64715 12.7649 3.6234C12.6817 3.59966 12.5944 3.59417 12.5089 3.60731L4.1089 4.89131C3.96728 4.91309 3.83813 4.98483 3.7448 5.09356C3.65148 5.20229 3.60015 5.34083 3.6001 5.48411V18.5161C3.60015 18.6594 3.65148 18.7979 3.7448 18.9067C3.83813 19.0154 3.96728 19.0871 4.1089 19.1089L12.5089 20.3941C12.5944 20.4073 12.6817 20.4018 12.7649 20.378C12.848 20.3543 12.9251 20.3128 12.9907 20.2565C13.0564 20.2002 13.1091 20.1304 13.1452 20.0518C13.1813 19.9733 13.2001 19.8878 13.2001 19.8013V12.0001H19.4065L18.2101 13.0489C18.0975 13.1555 18.0305 13.3016 18.0232 13.4565C18.016 13.6114 18.0689 13.7631 18.171 13.8798C18.2731 13.9964 18.4165 14.0691 18.571 14.0824C18.7254 14.0958 18.8791 14.0488 18.9997 13.9513L21.3949 11.8513C21.4591 11.795 21.5106 11.7256 21.5459 11.6478C21.5812 11.57 21.5994 11.4855 21.5994 11.4001C21.5994 11.3147 21.5812 11.2302 21.5459 11.1524C21.5106 11.0746 21.4591 11.0052 21.3949 10.9489L18.9997 8.84891C18.88 8.74421 18.7237 8.69132 18.565 8.7019C18.4064 8.71248 18.2584 8.78565 18.1537 8.90531C18.049 9.02498 17.9961 9.18134 18.0067 9.33999C18.0173 9.49865 18.0904 9.64661 18.2101 9.75131L19.4065 10.8001H13.2001V4.20011ZM12.0001 4.89851V19.1041L4.8001 18.0001V5.99891L12.0001 4.89851ZM15.0001 19.2001H14.4001V13.2001H15.6001V18.6001C15.6001 18.7592 15.5369 18.9119 15.4244 19.0244C15.3118 19.1369 15.1592 19.2001 15.0001 19.2001ZM14.4001 9.60011V4.80011H15.0001C15.1592 4.80011 15.3118 4.86333 15.4244 4.97585C15.5369 5.08837 15.6001 5.24098 15.6001 5.40011V9.60011H14.4001Z" fill="black"/>
</svg>
